<svg width="32" height="32" viewBox="0 0 80 80" fill="none" xmlns="http://www.w3.org/2000/svg">
  <rect x="2" y="2" width="76" height="76" rx="16" fill="#2B2B2B"/>
  <!-- Diagonal -->
  <polygon points="15.5,20 26.5,20 59.5,64 48.5,64" fill="white"/>
  <polygon points="26.5,20 31.5,17 64.5,61 59.5,64" fill="#c8c8c8"/>
  <!-- Left Bar -->
  <polygon points="26.5,20 31.5,17 31.5,61 26.5,64" fill="#c8c8c8"/>
  <polygon points="15.5,20 26.5,20 26.5,64 15.5,64" fill="white"/>
  <polygon points="15.5,20 26.5,20 31.5,17 20.5,17" fill="#e8e8e8"/>
  <!-- Right Bar -->
  <polygon points="59.5,20 64.5,17 64.5,61 59.5,64" fill="#c8c8c8"/>
  <polygon points="48.5,20 59.5,20 59.5,64 48.5,64" fill="white"/>
  <polygon points="48.5,20 59.5,20 64.5,17 53.5,17" fill="#e8e8e8"/>
</svg>
