<svg width="80" height="80" viewBox="0 0 80 80" fill="none" xmlns="http://www.w3.org/2000/svg">
  <!-- Container -->
  <rect x="2" y="2" width="76" height="76" rx="16" fill="#2B2B2B"/>

  <!--
    3D Isometric N — Geometrically Perfect V3
    Corrected Projection Vector: (+5, -3) => ~31° (Standard Isometric)
    Previous was (+5, -4) => ~39° (Too steep)
    
    Base Logic:
    - Vertical Bar Width: 11px
    - X Shift: -1.5px (for perfect optical centering)
    - Y Projection: Top moves from 20 -> 17. Bottom 64 -> 61.
  -->

  <!-- ===== DIAGONAL BAR (Back Layer) ===== -->
  <!-- 
    Front coords: (15.5, 20) -> (26.5, 20) -> (59.5, 64) -> (48.5, 64)
    Back coords: (+5, -3) offset
  -->
  <polygon points="15.5,20 26.5,20 59.5,64 48.5,64" fill="white"/>
  <!-- Diagonal Side/Depth Face -->
  <polygon points="26.5,20 31.5,17 64.5,61 59.5,64" fill="#c8c8c8"/>

  <!-- ===== LEFT VERTICAL BAR (Front Layer Top) ===== -->
  <!-- Side Face (Right) -->
  <!-- Front Edge: (26.5, 20) to (26.5, 64) -->
  <!-- Back Edge:  (31.5, 17) to (31.5, 61) -->
  <polygon points="26.5,20 31.5,17 31.5,61 26.5,64" fill="#c8c8c8"/>
  
  <!-- Front Face -->
  <polygon points="15.5,20 26.5,20 26.5,64 15.5,64" fill="white"/>
  
  <!-- Top Face -->
  <!-- Front Edge: (15.5, 20) to (26.5, 20) -->
  <!-- Back Edge:  (20.5, 17) to (25.5, 17) -->
  <polygon points="15.5,20 26.5,20 31.5,17 20.5,17" fill="#e8e8e8"/>

  <!-- ===== RIGHT VERTICAL BAR (Front Layer Bottom) ===== -->
  <!-- Side Face (Right) -->
  <polygon points="59.5,20 64.5,17 64.5,61 59.5,64" fill="#c8c8c8"/>
  
  <!-- Front Face -->
  <polygon points="48.5,20 59.5,20 59.5,64 48.5,64" fill="white"/>
  
  <!-- Top Face -->
  <polygon points="48.5,20 59.5,20 64.5,17 53.5,17" fill="#e8e8e8"/>

</svg>
