<?xml version="1.0" encoding="UTF-8"?>
<svg version="1.1" xmlns="http://www.w3.org/2000/svg" width="600" height="81">
<path d="M0 0 C198 0 396 0 600 0 C600 26.73 600 53.46 600 81 C402 81 204 81 0 81 C0 54.27 0 27.54 0 0 Z " fill="#FAFAFA" transform="translate(0,0)"/>
<path d="M0 0 C2.60030083 0.00186866 5.20060201 0.00329044 7.80090332 0.00428772 C13.90255132 0.00769205 20.00417817 0.01554158 26.10581827 0.02563721 C33.74892738 0.03800324 41.3920396 0.04340533 49.03515625 0.04882812 C62.63803506 0.05850951 76.24087393 0.07855109 89.84375 0.09765625 C89.84375 26.82765625 89.84375 53.55765625 89.84375 81.09765625 C61.2472181 81.13781992 61.2472181 81.13781992 47.02565193 81.14791012 C39.36328632 81.15343115 31.7009317 81.16041775 24.03857422 81.1730957 C17.31474145 81.18421539 10.59092304 81.18995474 3.86708069 81.19253349 C1.31250318 81.19436929 -1.24207373 81.19795385 -3.79664612 81.20338631 C-16.95503003 81.23023438 -30.0371461 81.20745719 -43.15625 80.09765625 C-43.15625 79.76765625 -43.15625 79.43765625 -43.15625 79.09765625 C-37.87625 79.09765625 -32.59625 79.09765625 -27.15625 79.09765625 C-27.15625 53.68765625 -27.15625 28.27765625 -27.15625 2.09765625 C-32.43625 2.09765625 -37.71625 2.09765625 -43.15625 2.09765625 C-43.15625 1.76765625 -43.15625 1.43765625 -43.15625 1.09765625 C-28.77727861 -0.11872225 -14.4201829 -0.03066543 0 0 Z " fill="#FAFAFA" transform="translate(510.15625,-0.09765625)"/>
<path d="M0 0 C6.64125 -0.061875 13.2825 -0.12375 20.125 -0.1875 C22.21086426 -0.21481201 24.29672852 -0.24212402 26.44580078 -0.27026367 C28.11229881 -0.27903139 29.77880329 -0.28667465 31.4453125 -0.29296875 C32.29988037 -0.30831665 33.15444824 -0.32366455 34.03491211 -0.33947754 C40.08613628 -0.34211539 44.21960643 0.7197546 49.01953125 4.65625 C53.44554129 9.20761544 57.51201445 13.95859493 61.484375 18.91015625 C64.93677374 23.15060253 68.51397789 27.27936124 72.10253906 31.40478516 C75.89450851 35.78901703 75.89450851 35.78901703 77 38 C80.53336679 37.22146155 83.81487425 35.98900313 87.1875 34.6875 C88.3425 34.2440625 89.4975 33.800625 90.6875 33.34375 C93.43314449 32.22995082 96.04084327 31.01082836 98.6875 29.6875 C104.01279608 27.29355956 109.46603935 26.79953245 115.046875 28.6953125 C119.38002077 30.89892082 121.91749318 33.66838582 124 38 C124.55794325 44.60232843 123.10752305 49.46131512 120.6875 55.5625 C120.37876953 56.37396484 120.07003906 57.18542969 119.75195312 58.02148438 C118.85655534 60.3570588 117.93508281 62.68006391 117 65 C116.73566162 65.66459229 116.47132324 66.32918457 116.19897461 67.01391602 C114.85815051 70.28323346 113.48044681 73.11528709 111.1875 75.8125 C110.72730469 76.37582031 110.26710938 76.93914062 109.79296875 77.51953125 C104.65696659 81.76036964 98.24140116 81.27553656 91.95556641 81.22705078 C90.95982605 81.22734283 89.96408569 81.22763489 88.93817139 81.22793579 C85.65921196 81.22654663 82.38048205 81.21100473 79.1015625 81.1953125 C76.82327397 81.19158091 74.54498383 81.18873462 72.26669312 81.18673706 C66.27931259 81.17911217 60.29202958 81.15947341 54.3046875 81.1373291 C47.11600255 81.11324281 39.92728495 81.10408425 32.73857117 81.09242249 C21.82564636 81.07304845 10.91293537 81.03471772 0 81 C0 54.27 0 27.54 0 0 Z " fill="#0A0A0A" transform="translate(0,0)"/>
<path d="M0 0 C6.6 0 13.2 0 20 0 C23.18334092 6.55393719 25.76949301 13.07887861 28 20 C29.58906427 24.92383275 31.19001572 29.70318022 33.4375 34.375 C36.26778236 40.26307938 38.29140178 46.39643858 40.3984375 52.56982422 C42.40306757 58.40819892 44.6085705 64.06011737 47.15234375 69.6875 C48 72 48 72 48 76 C42.06 76 36.12 76 30 76 C25 64.375 25 64.375 25 61 C14.77 61 4.54 61 -6 61 C-6.33 62.98 -6.66 64.96 -7 67 C-8.17640935 70.08984624 -9.59231179 73.0029864 -11 76 C-16.61 76 -22.22 76 -28 76 C-26.76534808 69.88094463 -25.14896367 64.28015151 -22.8125 58.5 C-22.50570312 57.72446777 -22.19890625 56.94893555 -21.8828125 56.14990234 C-20.09108385 51.64224215 -18.23762833 47.16211883 -16.36352539 42.68823242 C-16.07856201 42.00736572 -15.79359863 41.32649902 -15.5 40.625 C-15.21310303 39.93962158 -14.92620605 39.25424316 -14.63061523 38.5480957 C-11.99552243 32.16416877 -9.73872332 25.66569206 -7.49975586 19.13427734 C-5.2568075 12.62505294 -2.74354055 6.31845703 0 0 Z " fill="#0A0A0A" transform="translate(169,3)"/>
<path d="M0 0 C5.28 0 10.56 0 16 0 C19.66554809 9.50327282 22.36261385 19.17465568 25 29 C29.30425669 20.80802758 32.18240157 11.79547619 35 3 C35.33 2.01 35.66 1.02 36 0 C41.94 0 47.88 0 54 0 C58.95 14.355 58.95 14.355 64 29 C66.84724911 26.15275089 67.11731625 22.8151589 67.9375 19 C69.37807857 12.57097726 71.00497499 6.28432878 73 0 C78.28 0 83.56 0 89 0 C88.36152051 3.83087693 87.77610323 7.07423037 86.65234375 10.703125 C86.38663574 11.56486328 86.12092773 12.42660156 85.84716797 13.31445312 C84.43295834 17.79753841 83.00270971 22.27520422 81.5625 26.75 C79.12951497 34.33432103 76.81866207 41.92708935 74.7265625 49.61328125 C74 52 74 52 73 53 C70.13732433 53.07325168 67.299281 53.09238205 64.4375 53.0625 C63.63119141 53.05798828 62.82488281 53.05347656 61.99414062 53.04882812 C59.99606244 53.03700518 57.99802217 53.01906914 56 53 C52.62401345 44.23368825 49.41810853 35.52190996 46.859375 26.4765625 C46.15439918 23.86358465 46.15439918 23.86358465 44 22 C43.55346069 23.35532837 43.55346069 23.35532837 43.09790039 24.73803711 C41.99515094 28.08030897 40.88973264 31.42167287 39.7824707 34.76245117 C39.30320101 36.21033645 38.82500743 37.65857838 38.34790039 39.10717773 C37.66312716 41.18567425 36.97453228 43.26287003 36.28515625 45.33984375 C35.87144775 46.59144287 35.45773926 47.84304199 35.03149414 49.13256836 C34 52 34 52 33 53 C30.13732433 53.07325168 27.299281 53.09238205 24.4375 53.0625 C23.63119141 53.05798828 22.82488281 53.05347656 21.99414062 53.04882812 C19.99606244 53.03700518 17.99802217 53.01906914 16 53 C13.90165822 47.52579659 11.9945726 42.03361693 10.25 36.4375 C9.99976074 35.63828125 9.74952148 34.8390625 9.49169922 34.015625 C8.6578236 31.34476894 7.82878574 28.67243959 7 26 C6.52578613 24.47850342 6.52578613 24.47850342 6.04199219 22.92626953 C5.0645899 19.7857242 4.09381443 16.64320411 3.125 13.5 C2.6594873 12.00424438 2.6594873 12.00424438 2.18457031 10.47827148 C1.89936523 9.54700439 1.61416016 8.6157373 1.3203125 7.65625 C1.06523926 6.82931641 0.81016602 6.00238281 0.54736328 5.15039062 C0 3 0 3 0 0 Z " fill="#090909" transform="translate(287,26)"/>
<path d="M0 0 C1.91015625 1.3671875 1.91015625 1.3671875 4.41015625 3.8671875 C4.74015625 2.5471875 5.07015625 1.2271875 5.41015625 -0.1328125 C10.69015625 -0.1328125 15.97015625 -0.1328125 21.41015625 -0.1328125 C21.41015625 17.3571875 21.41015625 34.8471875 21.41015625 52.8671875 C16.13015625 52.8671875 10.85015625 52.8671875 5.41015625 52.8671875 C5.08015625 51.2171875 4.75015625 49.5671875 4.41015625 47.8671875 C3.68828125 48.6509375 2.96640625 49.4346875 2.22265625 50.2421875 C-2.35450882 54.51420823 -6.15119203 55.29147679 -12.26171875 55.109375 C-20.00741991 54.30361414 -25.29809049 50.40336354 -30.58984375 44.8671875 C-32.46484375 42.1796875 -32.46484375 42.1796875 -33.58984375 39.8671875 C-33.93611816 39.2474707 -34.28239258 38.62775391 -34.63916016 37.98925781 C-36.2806523 34.32519779 -35.9587439 30.57598842 -35.96484375 26.6171875 C-35.98933594 25.79605469 -36.01382812 24.97492187 -36.0390625 24.12890625 C-36.07371917 16.83945257 -34.00410913 11.75089337 -29.33984375 6.1796875 C-28.43234375 5.4165625 -27.52484375 4.6534375 -26.58984375 3.8671875 C-26.08324219 3.40054687 -25.57664062 2.93390625 -25.0546875 2.453125 C-18.53133583 -2.67953412 -7.56607732 -3.30944559 0 0 Z " fill="#0A0A0A" transform="translate(412.58984375,26.1328125)"/>
<path d="M0 0 C6.15636979 5.00363388 9.06633663 9.80743174 10.8984375 17.54296875 C10.8984375 21.17296875 10.8984375 24.80296875 10.8984375 28.54296875 C-1.6415625 28.54296875 -14.1815625 28.54296875 -27.1015625 28.54296875 C-24.61222449 34.3771784 -24.61222449 34.3771784 -20.1015625 37.54296875 C-15.91671518 38.10827646 -12.43848724 38.43502026 -8.8359375 36.03125 C-5.16531647 34.03338341 -1.84903705 34.2139683 2.2109375 34.35546875 C3.32178711 34.37577148 3.32178711 34.37577148 4.45507812 34.39648438 C6.26984825 34.43160896 8.08424038 34.48540903 9.8984375 34.54296875 C8.63106958 40.37788046 5.37093161 44.78147331 0.6484375 48.44140625 C-6.52369216 52.95600573 -15.0887312 53.82684732 -23.296875 52.07421875 C-30.88686969 49.57398521 -37.34644215 44.61992634 -41.1015625 37.54296875 C-44.12537043 30.28582971 -44.38202994 21.38105926 -42.37890625 13.8125 C-40.442916 9.13320374 -37.94789662 5.89618311 -34.1015625 2.54296875 C-33.5859375 1.98609375 -33.0703125 1.42921875 -32.5390625 0.85546875 C-24.73118424 -6.27346358 -8.33833803 -5.53306074 0 0 Z " fill="#0B0B0B" transform="translate(532.1015625,28.45703125)"/>
<path d="M0 0 C0.99 0 1.98 0 3 0 C4.83984375 1.9140625 4.83984375 1.9140625 6.9375 4.625 C8.12666016 6.12933594 8.12666016 6.12933594 9.33984375 7.6640625 C9.76765137 8.20579102 10.19545898 8.74751953 10.63623047 9.30566406 C13.01857147 12.26546474 15.51367132 15.12754889 18 18 C21.53696668 22.1015295 25.02866476 26.22805759 28.4375 30.4375 C33.64728585 36.85027277 39.07155826 43.07089779 44.51220703 49.28759766 C45.83354134 50.80841138 47.13505399 52.34639631 48.43359375 53.88671875 C49.45646484 55.08748047 49.45646484 55.08748047 50.5 56.3125 C51.0671875 56.98925781 51.634375 57.66601562 52.21875 58.36328125 C54.32004307 60.29407467 56.31403603 61.09394709 59 62 C59 62.33 59 62.66 59 63 C33.92 63 8.84 63 -17 63 C-13.99351452 60.99567635 -11.22391329 59.79939337 -7.87109375 58.46875 C-6.67162109 57.98792969 -5.47214844 57.50710937 -4.23632812 57.01171875 C-2.33213932 56.25299737 -0.42730251 55.49595843 1.47827148 54.74072266 C3.3218891 54.00859671 5.16293848 53.27001383 7.00390625 52.53125 C8.10549072 52.09361328 9.2070752 51.65597656 10.34204102 51.20507812 C13.08540367 50.14927924 13.08540367 50.14927924 15 48 C15.35639561 45.89582032 15.35639561 45.89582032 15.3125 43.5625 C15.32925781 42.78003906 15.34601562 41.99757812 15.36328125 41.19140625 C15.15674575 38.93908353 15.15674575 38.93908353 13.71484375 37.21875 C11.15953651 35.40267743 8.87508704 35.84879128 5.8828125 36.2734375 C1.46408141 37.38710143 -2.67771738 39.11721409 -6.85839844 40.91577148 C-9.75474211 42.15636452 -11.81110161 43 -15 43 C-13.81027354 36.86176627 -12.10733816 31.22175133 -9.75 25.4375 C-9.12800313 23.87666168 -8.50692999 22.31545497 -7.88671875 20.75390625 C-7.57395996 19.97031738 -7.26120117 19.18672852 -6.93896484 18.37939453 C-5.43267052 14.56235228 -3.99551809 10.72003303 -2.5625 6.875 C-2.3037207 6.18204834 -2.04494141 5.48909668 -1.77832031 4.77514648 C-1.18454508 3.18380443 -0.59210641 1.59196375 0 0 Z " fill="#FAFAFA" transform="translate(36,18)"/>
<path d="M0 0 C12.46425988 -1.31833518 12.46425988 -1.31833518 18 0 C21.83579995 3.13126527 23.73449448 6.66353376 26 11 C27.57163022 12.79411576 27.57163022 12.79411576 29 14 C29.28875 13.27425781 29.5775 12.54851563 29.875 11.80078125 C30.24625 10.87652344 30.6175 9.95226562 31 9 C31.28875 8.18917969 31.5775 7.37835938 31.875 6.54296875 C33.29924258 3.56096085 34.32005075 1.99081944 37 0 C42.90143203 -1.16843274 49.05219306 -0.50500248 55 0 C53.316015 3.69043522 51.06751768 6.93884842 48.75 10.25 C48.35321045 10.82556641 47.9564209 11.40113281 47.54760742 11.99414062 C44.82852425 15.91199486 41.95301218 19.63481819 38.80078125 23.21875 C37.77537867 25.02721423 37.77537867 25.02721423 38.484375 27.21875 C40.60348127 31.10741925 43.22707309 34.50641763 45.9375 38 C55 49.76497006 55 49.76497006 55 53 C42.53574012 54.31833518 42.53574012 54.31833518 37 53 C33.16420005 49.86873473 31.26550552 46.33646624 29 42 C27.42836978 40.20588424 27.42836978 40.20588424 26 39 C25.71125 39.72574219 25.4225 40.45148438 25.125 41.19921875 C24.75375 42.12347656 24.3825 43.04773438 24 44 C23.566875 45.21623047 23.566875 45.21623047 23.125 46.45703125 C21.70075742 49.43903915 20.67994925 51.00918056 18 53 C12.09856797 54.16843274 5.94780694 53.50500248 0 53 C2.30537425 48.46874716 4.73108491 44.27996083 7.81640625 40.23828125 C8.31744873 39.58093994 8.81849121 38.92359863 9.3347168 38.24633789 C10.35293338 36.92664269 11.38422829 35.61692483 12.42895508 34.31811523 C15.24788577 30.76598597 15.24788577 30.76598597 16.08203125 26.44140625 C14.67092149 23.25749434 12.84997845 20.49208268 10.8125 17.6875 C10.40974854 17.11789551 10.00699707 16.54829102 9.59204102 15.96142578 C6.83611398 12.08434127 3.98080238 8.29053521 0.99609375 4.5859375 C0 3 0 3 0 0 Z " fill="#090909" transform="translate(543,26)"/>
<path d="M0 0 C5.61 0 11.22 0 17 0 C17 25.41 17 50.82 17 77 C11.39 77 5.78 77 0 77 C0 51.59 0 26.18 0 0 Z " fill="#0B0B0B" transform="translate(442,2)"/>
<path d="M0 0 C5.28 0 10.56 0 16 0 C16 25.41 16 50.82 16 77 C10.72 77 5.44 77 0 77 C0 51.59 0 26.18 0 0 Z " fill="#060606" transform="translate(467,2)"/>
<path d="M0 0 C5.28 0 10.56 0 16 0 C16.33 1.65 16.66 3.3 17 5 C17.763125 4.360625 18.52625 3.72125 19.3125 3.0625 C22.87552938 0.32808211 25.32439271 -0.12573344 29.6875 -0.0625 C31.8221875 -0.0315625 31.8221875 -0.0315625 34 0 C34 5.28 34 10.56 34 16 C31.4321875 16.0928125 31.4321875 16.0928125 28.8125 16.1875 C24.67346841 16.55505879 23.27579659 16.79039459 19.875 19.375 C16.98792536 23.41690449 16.83741595 26.56158208 16.68359375 31.41796875 C16.64169922 32.67158203 16.59980469 33.92519531 16.55664062 35.21679688 C16.51732422 36.52712891 16.47800781 37.83746094 16.4375 39.1875 C16.39429008 40.52279978 16.350675 41.85808652 16.30664062 43.19335938 C16.20043566 46.46211234 16.09970215 49.73104223 16 53 C10.72 53 5.44 53 0 53 C0 35.51 0 18.02 0 0 Z " fill="#080808" transform="translate(248,26)"/>
<path d="M0 0 C10.89 0 21.78 0 33 0 C31.0283713 1.31441913 29.02817985 2.58714134 27 3.8125 C21.39353173 7.90054978 19.9214197 13.72533405 17.8125 20.0625 C15.3488863 27.29924016 12.69591114 34.42020189 9.8125 41.5 C3.18995361 55.78731784 3.18995361 55.78731784 2 71 C4.59047455 75.21996661 7.47773291 77.97481083 12 80 C12 80.33 12 80.66 12 81 C8.04 81 4.08 81 0 81 C0 54.27 0 27.54 0 0 Z " fill="#FCFCFC" transform="translate(0,0)"/>
<path d="M0 0 C5.28 0 10.56 0 16 0 C16 17.49 16 34.98 16 53 C10.72 53 5.44 53 0 53 C0 35.51 0 18.02 0 0 Z " fill="#060606" transform="translate(223,26)"/>
<path d="M0 0 C10.23 0 20.46 0 31 0 C36 13 36 13 36 16 C41.94 16 47.88 16 54 16 C54 16.33 54 16.66 54 17 C28.92 17 3.84 17 -22 17 C-22 16.67 -22 16.34 -22 16 C-16.06 16 -10.12 16 -4 16 C-3.67 13.36 -3.34 10.72 -3 8 C-2.01 5.36 -1.02 2.72 0 0 Z " fill="#FDFDFD" transform="translate(163,64)"/>
<path d="M0 0 C3.98125542 1.8547214 6.46778028 3.93556056 8.4375 7.875 C9.56670051 14.14833614 9.36335092 18.68205322 6.25390625 24.26171875 C4.17820493 27.13924862 2.39529869 28.03906641 -1 29 C-4.94332965 29.27868054 -8.4899954 29.22799428 -11.65234375 26.65625 C-16.30926126 21.14893886 -16.41657745 16.93930336 -16 10 C-14.91534858 5.46418499 -12.77719266 3.64403486 -9 1 C-5.84017111 -0.57991444 -3.49944139 -0.34420735 0 0 Z " fill="#F6F6F6" transform="translate(409,38)"/>
<path d="M0 0 C3 1.5625 3 1.5625 5 4 C6.39316701 8.42535402 6.39992433 10.22871736 4.25 14.375 C1.42704895 17.66844289 -0.1209974 17.90233304 -4.375 18.375 C-8 18 -8 18 -10.9375 16.0625 C-13.69990204 11.96075152 -13.93339724 8.81058577 -13 4 C-10.13486252 -1.10741898 -5.28007927 -0.91295488 0 0 Z " fill="#0C0C0C" transform="translate(235,1)"/>
<path d="M0 0 C0.66 0 1.32 0 2 0 C2.36351562 1.10794922 2.36351562 1.10794922 2.734375 2.23828125 C4.78713316 8.45182228 6.93143591 14.60887636 9.265625 20.72265625 C10 23 10 23 10 26 C3.73 26 -2.54 26 -9 26 C-6.50556932 17.13091313 -3.29501074 8.59475294 0 0 Z " fill="#EDEDED" transform="translate(178,23)"/>
<path d="M0 0 C3 1 3 1 4.375 3.72265625 C4.91125 4.82480469 5.4475 5.92695312 6 7.0625 C8.71589161 11.44556218 8.71589161 11.44556218 13.23046875 13.56396484 C18.85378757 14.07507657 24.40106963 13.60956097 30 13 C30 13.66 30 14.32 30 15 C11.25986185 16.18715807 -7.26588528 16.35895133 -26 15 C-26 14.67 -26 14.34 -26 14 C-20.06 14 -14.12 14 -8 14 C-7.34 12.35 -6.68 10.7 -6 9 C-4.99958424 7.36978883 -3.95760047 5.76433112 -2.875 4.1875 C-2.33617187 3.39730469 -1.79734375 2.60710937 -1.2421875 1.79296875 C-0.83226562 1.20128906 -0.42234375 0.60960938 0 0 Z " fill="#E8E8E8" transform="translate(569,65)"/>
<path d="M0 0 C3.51858442 2.55097371 3.92192075 3.68768302 5 8 C-2.26 8 -9.52 8 -17 8 C-15.94460224 3.77840895 -15.19804773 2.72774659 -12 0 C-7.8313129 -1.38956237 -4.2521932 -0.99961142 0 0 Z " fill="#F4F4F4" transform="translate(522,38)"/>
<path d="M0 0 C-1.49276376 5.39691512 -3.19695845 10.69905784 -5 16 C-5.99 16 -6.98 16 -8 16 C-9.82421875 14.1015625 -9.82421875 14.1015625 -11.6875 11.625 C-12.31011719 10.81289063 -12.93273437 10.00078125 -13.57421875 9.1640625 C-15 7 -15 7 -15 5 C-13.25447527 4.15733289 -11.5033792 3.32619962 -9.75 2.5 C-8.77546875 2.0359375 -7.8009375 1.571875 -6.796875 1.09375 C-4 0 -4 0 0 0 Z " fill="#EDEDED" transform="translate(105,47)"/>
<path d="M0 0 C0.33 0 0.66 0 1 0 C1.04125 1.010625 1.0825 2.02125 1.125 3.0625 C1.78926235 7.79897939 4.49498878 10.88899472 8 14 C10.1061262 15.18683501 10.1061262 15.18683501 12 16 C12 16.33 12 16.66 12 17 C8.04 17 4.08 17 0 17 C0 11.39 0 5.78 0 0 Z " fill="#F3F3F3" transform="translate(0,64)"/>
<path d="M0 0 C0.33 0 0.66 0 1 0 C1 1.98 1 3.96 1 6 C6.28 6 11.56 6 17 6 C17 6.33 17 6.66 17 7 C7.98865693 7.6331684 -0.95971078 8.1723784 -10 8 C-8 6 -8 6 -5 4.5625 C-1.77974457 3.19148236 -1.77974457 3.19148236 0 0 Z " fill="#D8D8D8" transform="translate(417,73)"/>
</svg>
